<?xml version="1.0" encoding="UTF-8" standalone="no"?><svg xmlns="http://www.w3.org/2000/svg" xmlns:xlink="http://www.w3.org/1999/xlink" clip-rule="evenodd" stroke-miterlimit="4.00" viewBox="0 0 1920 1080"><desc>SVG generated by Keynote</desc><defs><linearGradient id="gradSh1.11" x1="0.0" y1="0.0" x2="100.0" y2="0.0" gradientUnits="userSpaceOnUse" gradientTransform="matrix(0.00, 10.82, 19.22, 0.00, 960.0, -1.0)"><stop offset="0.00000" stop-color="#140223"></stop><stop offset="0.01173" stop-color="#150223"></stop><stop offset="0.14883" stop-color="#190429"></stop><stop offset="0.14956" stop-color="#1A0429"></stop><stop offset="0.60704" stop-color="#2A083C"></stop><stop offset="0.61877" stop-color="#2B083C"></stop><stop offset="0.70161" stop-color="#2E0840"></stop><stop offset="0.72141" stop-color="#2E0940"></stop><stop offset="1.00000" stop-color="#380B4C"></stop></linearGradient><pattern id="7E1195E6-B8ED-4D70-9193-A7FE6FB352D6" patternUnits="userSpaceOnUse" width="90" height="90" viewBox="0 0 90 90" patternTransform="matrix(1.422222, 0.000000, 0.000000, -1.422222, -0.601544, 884.443000)"><image xlink:href="../../B4605DC9-A332-4945-BE7D-F5F6FFF7EF2B/assets/6E2F998697819C14EA61B8463CB9E765.jpeg" width="90.00" height="90.00"></image></pattern></defs><g transform="matrix(1.00, 0.00, -0.00, -1.00, 0.0, 1080.0)"><g><clipPath id="clip-70"><path d="M 0.0 1080.0 L 1920.0 1080.0 L 1920.0 0.0 L 0.0 0.0 Z M 0.0 1080.0 "></path></clipPath><g clip-path="url(#clip-70)"><path d="M 0.0 1080.0 L 1920.0 1080.0 L 1920.0 0.0 L 0.0 0.0 Z M 0.0 1080.0 " fill="url(#gradSh1.11)"></path></g></g><g><clipPath id="clip-71"><path d="M -0.4 62.9 L 1920.4 62.9 L 1920.4 -3.9 L -0.4 -3.9 Z M -0.4 62.9 "></path></clipPath><g clip-path="url(#clip-71)"><image xlink:href="../../39451CEE-E280-41CA-872D-216C9FC86FAF/assets/5EE0F9538EBE349EFDB089AAD1362FE3.jpeg" width="958.00" height="768.00" transform="matrix(2.00, 0.00, -0.00, -2.01, -0.4, 799.8)"></image></g></g><image xlink:href="../../39451CEE-E280-41CA-872D-216C9FC86FAF/assets/C7D6B0CF7BED1D23F11F54838624F720.png" width="400.00" height="49.00" transform="matrix(1.18, 0.00, -0.00, -1.16, 1452.0, 58.0)"></image><text xml:space="preserve" font-family="OpenSans" font-size="22.0" fill="#FEFFFF" transform="matrix(1.00, 0.00, -0.00, -1.00, 21.0, 21.0)">#</text><text xml:space="preserve" font-family="OpenSans" font-size="22.0" fill="#FEFFFF" transform="matrix(1.00, 0.00, -0.00, -1.00, 35.2, 21.0)">D</text><text xml:space="preserve" font-family="OpenSans" font-size="22.0" fill="#FEFFFF" transform="matrix(1.00, 0.00, -0.00, -1.00, 51.2, 21.0)">e</text><text xml:space="preserve" font-family="OpenSans" font-size="22.0" fill="#FEFFFF" transform="matrix(1.00, 0.00, -0.00, -1.00, 63.2, 21.0)">v</text><text xml:space="preserve" font-family="OpenSans" font-size="22.0" fill="#FEFFFF" transform="matrix(1.00, 0.00, -0.00, -1.00, 74.2, 21.0)">o</text><text xml:space="preserve" font-family="OpenSans" font-size="22.0" fill="#FEFFFF" transform="matrix(1.00, 0.00, -0.00, -1.00, 87.0, 21.0)">x</text><text xml:space="preserve" font-family="OpenSans" font-size="22.0" fill="#FEFFFF" transform="matrix(1.00, 0.00, -0.00, -1.00, 98.5, 21.0)">x</text><text xml:space="preserve" font-family="OpenSans" font-size="22.0" fill="#FEFFFF" transform="matrix(1.00, 0.00, -0.00, -1.00, 110.1, 21.0)">F</text><text xml:space="preserve" font-family="OpenSans" font-size="22.0" fill="#FEFFFF" transform="matrix(1.00, 0.00, -0.00, -1.00, 121.4, 21.0)">R</text><g><clipPath id="clip-72"><path d="M -0.6 877.4 L 1956.5 877.4 L 1956.5 884.4 L -0.6 884.4 Z M -0.6 877.4 "></path></clipPath><g clip-path="url(#clip-72)"><path d="M 0.0 877.4 L 1920.0 877.4 L 1920.0 884.4 L 0.0 884.4 Z M 0.0 877.4 " fill="url(#7E1195E6-B8ED-4D70-9193-A7FE6FB352D6)"></path><path d="M -0.6 884.4 L 1956.5 884.4 L 1956.5 877.4 L -0.6 877.4 Z M -0.6 884.4 " fill="#740D29"></path></g></g><text xml:space="preserve" font-family="Montserrat-Regular" font-size="96.3" fill="#FEFFFF" transform="matrix(1.00, 0.00, -0.00, -1.00, 386.0, 934.0)">W</text><text xml:space="preserve" font-family="Montserrat-Regular" font-size="96.3" fill="#FEFFFF" transform="matrix(1.00, 0.00, -0.00, -1.00, 483.4, 934.0)">a</text><text xml:space="preserve" font-family="Montserrat-Regular" font-size="96.3" fill="#FEFFFF" transform="matrix(1.00, 0.00, -0.00, -1.00, 539.3, 934.0)">t</text><text xml:space="preserve" font-family="Montserrat-Regular" font-size="96.3" fill="#FEFFFF" transform="matrix(1.00, 0.00, -0.00, -1.00, 579.6, 934.0)">c</text><text xml:space="preserve" font-family="Montserrat-Regular" font-size="96.3" fill="#FEFFFF" transform="matrix(1.00, 0.00, -0.00, -1.00, 635.1, 934.0)">h</text><text xml:space="preserve" font-family="Montserrat-Regular" font-size="96.3" fill="#FEFFFF" transform="matrix(1.00, 0.00, -0.00, -1.00, 697.3, 934.0)">O</text><text xml:space="preserve" font-family="Montserrat-Regular" font-size="96.3" fill="#FEFFFF" transform="matrix(1.00, 0.00, -0.00, -1.00, 778.2, 934.0)">S</text><text xml:space="preserve" font-family="Montserrat-Regular" font-size="96.3" fill="#FEFFFF" transform="matrix(1.00, 0.00, -0.00, -1.00, 838.9, 934.0)">1</text><text xml:space="preserve" font-family="Montserrat-Regular" font-size="96.3" fill="#FEFFFF" transform="matrix(1.00, 0.00, -0.00, -1.00, 875.6, 934.0)"> </text><text xml:space="preserve" font-family="Montserrat-Regular" font-size="96.3" fill="#FEFFFF" transform="matrix(1.00, 0.00, -0.00, -1.00, 902.0, 934.0)">v</text><text xml:space="preserve" font-family="Montserrat-Regular" font-size="96.3" fill="#FEFFFF" transform="matrix(1.00, 0.00, -0.00, -1.00, 956.4, 934.0)">s</text><text xml:space="preserve" font-family="Montserrat-Regular" font-size="96.3" fill="#FEFFFF" transform="matrix(1.00, 0.00, -0.00, -1.00, 1005.1, 934.0)"> </text><text xml:space="preserve" font-family="Montserrat-Regular" font-size="96.3" fill="#FEFFFF" transform="matrix(1.00, 0.00, -0.00, -1.00, 1031.5, 934.0)">w</text><text xml:space="preserve" font-family="Montserrat-Regular" font-size="96.3" fill="#FEFFFF" transform="matrix(1.00, 0.00, -0.00, -1.00, 1118.9, 934.0)">a</text><text xml:space="preserve" font-family="Montserrat-Regular" font-size="96.3" fill="#FEFFFF" transform="matrix(1.00, 0.00, -0.00, -1.00, 1174.9, 934.0)">t</text><text xml:space="preserve" font-family="Montserrat-Regular" font-size="96.3" fill="#FEFFFF" transform="matrix(1.00, 0.00, -0.00, -1.00, 1215.1, 934.0)">c</text><text xml:space="preserve" font-family="Montserrat-Regular" font-size="96.3" fill="#FEFFFF" transform="matrix(1.00, 0.00, -0.00, -1.00, 1270.6, 934.0)">h</text><text xml:space="preserve" font-family="Montserrat-Regular" font-size="96.3" fill="#FEFFFF" transform="matrix(1.00, 0.00, -0.00, -1.00, 1332.8, 934.0)">O</text><text xml:space="preserve" font-family="Montserrat-Regular" font-size="96.3" fill="#FEFFFF" transform="matrix(1.00, 0.00, -0.00, -1.00, 1413.7, 934.0)">S</text><text xml:space="preserve" font-family="Montserrat-Regular" font-size="96.3" fill="#FEFFFF" transform="matrix(1.00, 0.00, -0.00, -1.00, 1474.4, 934.0)">2</text><text xml:space="preserve" font-family="Montserrat-Regular" font-size="22.0" fill="#FEFFFF" transform="matrix(1.00, 0.00, -0.00, -1.00, 953.0, 28.0)">7</text><path d="M 1066.2 784.5 L 1661.4 784.5 L 1661.4 234.7 L 1066.2 234.7 Z M 1066.2 784.5 " fill="#1497FC"></path><text xml:space="preserve" font-family="Helvetica-Light" font-size="50.0" fill="#FEFFFF" transform="matrix(1.00, 0.00, -0.00, -1.00, 1287.0, 701.0)">i</text><text xml:space="preserve" font-family="Helvetica-Light" font-size="50.0" fill="#FEFFFF" transform="matrix(1.00, 0.00, -0.00, -1.00, 1298.1, 701.0)">P</text><text xml:space="preserve" font-family="Helvetica-Light" font-size="50.0" fill="#FEFFFF" transform="matrix(1.00, 0.00, -0.00, -1.00, 1328.7, 701.0)">h</text><text xml:space="preserve" font-family="Helvetica-Light" font-size="50.0" fill="#FEFFFF" transform="matrix(1.00, 0.00, -0.00, -1.00, 1356.5, 701.0)">o</text><text xml:space="preserve" font-family="Helvetica-Light" font-size="50.0" fill="#FEFFFF" transform="matrix(1.00, 0.00, -0.00, -1.00, 1384.2, 701.0)">n</text><text xml:space="preserve" font-family="Helvetica-Light" font-size="50.0" fill="#FEFFFF" transform="matrix(1.00, 0.00, -0.00, -1.00, 1412.0, 701.0)">e</text><path d="M 1203.1 669.8 L 1524.6 669.8 C 1544.2 669.8 1554.2 669.8 1564.8 666.5 C 1576.3 662.2 1585.5 653.1 1589.7 641.5 C 1593.0 631.0 1593.0 621.0 1593.0 601.1 L 1593.0 439.8 C 1593.0 420.1 1593.0 410.2 1589.7 399.6 C 1585.5 388.0 1576.3 378.9 1564.8 374.7 C 1554.2 371.3 1544.2 371.3 1524.3 371.3 L 1203.1 371.3 C 1183.4 371.3 1173.5 371.3 1162.9 374.7 C 1151.3 378.9 1142.2 388.0 1138.0 399.6 C 1134.6 410.2 1134.6 420.1 1134.6 440.1 L 1134.6 601.4 C 1134.6 621.0 1134.6 631.0 1138.0 641.5 C 1142.2 653.1 1151.3 662.2 1162.9 666.5 C 1173.5 669.8 1183.4 669.8 1203.4 669.8 Z M 1203.1 669.8 " fill="#FEFFFE"></path><text xml:space="preserve" font-family="Helvetica-Light" font-size="50.0" fill="#000000" transform="matrix(1.00, 0.00, -0.00, -1.00, 1260.0, 599.0)">i</text><text xml:space="preserve" font-family="Helvetica-Light" font-size="50.0" fill="#000000" transform="matrix(1.00, 0.00, -0.00, -1.00, 1271.1, 599.0)">O</text><text xml:space="preserve" font-family="Helvetica-Light" font-size="50.0" fill="#000000" transform="matrix(1.00, 0.00, -0.00, -1.00, 1310.0, 599.0)">S</text><text xml:space="preserve" font-family="Helvetica-Light" font-size="50.0" fill="#000000" transform="matrix(1.00, 0.00, -0.00, -1.00, 1340.5, 599.0)"> </text><text xml:space="preserve" font-family="Helvetica-Light" font-size="50.0" fill="#000000" transform="matrix(1.00, 0.00, -0.00, -1.00, 1354.5, 599.0)">a</text><text xml:space="preserve" font-family="Helvetica-Light" font-size="50.0" fill="#000000" transform="matrix(1.00, 0.00, -0.00, -1.00, 1382.2, 599.0)">p</text><text xml:space="preserve" font-family="Helvetica-Light" font-size="50.0" fill="#000000" transform="matrix(1.00, 0.00, -0.00, -1.00, 1412.8, 599.0)">p</text><path d="M 174.7 784.5 L 769.9 784.5 L 769.9 234.7 L 174.7 234.7 Z M 174.7 784.5 " fill="#1497FC"></path><g><clipPath id="clip-73"><path d="M 171.3 234.7 L 773.3 234.7 L 773.3 784.5 L 171.3 784.5 Z M 171.3 234.7 "></path></clipPath><g clip-path="url(#clip-73)"><text xml:space="preserve" font-family="Helvetica-Light" font-size="36.0" fill="#FEFFFF" transform="matrix(1.00, 0.00, -0.00, -1.00, 446.0, 496.0)">Ω</text><text xml:space="preserve" font-family="Helvetica-Light" font-size="36.0" fill="#FEFFFF" transform="matrix(1.00, 0.00, -0.00, -1.00, 472.1, 496.0)">Ω</text></g></g><text xml:space="preserve" font-family="LucidaGrande" font-size="50.0" fill="#FEFFFF" transform="matrix(1.00, 0.00, -0.00, -1.00, 377.0, 701.0)"></text><text xml:space="preserve" font-family="Helvetica-Light" font-size="50.0" fill="#FEFFFF" transform="matrix(1.00, 0.00, -0.00, -1.00, 427.0, 701.0)">W</text><text xml:space="preserve" font-family="Helvetica-Light" font-size="50.0" fill="#FEFFFF" transform="matrix(1.00, 0.00, -0.00, -1.00, 469.6, 701.0)">a</text><text xml:space="preserve" font-family="Helvetica-Light" font-size="50.0" fill="#FEFFFF" transform="matrix(1.00, 0.00, -0.00, -1.00, 497.4, 701.0)">t</text><text xml:space="preserve" font-family="Helvetica-Light" font-size="50.0" fill="#FEFFFF" transform="matrix(1.00, 0.00, -0.00, -1.00, 511.3, 701.0)">c</text><text xml:space="preserve" font-family="Helvetica-Light" font-size="50.0" fill="#FEFFFF" transform="matrix(1.00, 0.00, -0.00, -1.00, 539.1, 701.0)">h</text><path d="M 311.5 669.8 L 633.1 669.8 C 652.7 669.8 662.6 669.8 673.2 666.5 C 684.8 662.2 693.9 653.1 698.2 641.5 C 701.5 631.0 701.5 621.0 701.5 601.1 L 701.5 439.8 C 701.5 420.1 701.5 410.2 698.2 399.6 C 693.9 388.0 684.8 378.9 673.2 374.7 C 662.6 371.3 652.7 371.3 632.8 371.3 L 311.5 371.3 C 291.9 371.3 281.9 371.3 271.4 374.7 C 259.8 378.9 250.6 388.0 246.4 399.6 C 243.1 410.2 243.1 420.1 243.1 440.1 L 243.1 601.4 C 243.1 621.0 243.1 631.0 246.4 641.5 C 250.6 653.1 259.8 662.2 271.4 666.5 C 281.9 669.8 291.9 669.8 311.8 669.8 Z M 311.5 669.8 " fill="#FEFFFE"></path><text xml:space="preserve" font-family="Helvetica-Light" font-size="50.0" fill="#000000" transform="matrix(1.00, 0.00, -0.00, -1.00, 339.0, 599.0)">W</text><text xml:space="preserve" font-family="Helvetica-Light" font-size="50.0" fill="#000000" transform="matrix(1.00, 0.00, -0.00, -1.00, 381.6, 599.0)">a</text><text xml:space="preserve" font-family="Helvetica-Light" font-size="50.0" fill="#000000" transform="matrix(1.00, 0.00, -0.00, -1.00, 409.4, 599.0)">t</text><text xml:space="preserve" font-family="Helvetica-Light" font-size="50.0" fill="#000000" transform="matrix(1.00, 0.00, -0.00, -1.00, 423.3, 599.0)">c</text><text xml:space="preserve" font-family="Helvetica-Light" font-size="50.0" fill="#000000" transform="matrix(1.00, 0.00, -0.00, -1.00, 451.1, 599.0)">h</text><text xml:space="preserve" font-family="Helvetica-Light" font-size="50.0" fill="#000000" transform="matrix(1.00, 0.00, -0.00, -1.00, 478.9, 599.0)"> </text><text xml:space="preserve" font-family="Helvetica-Light" font-size="50.0" fill="#000000" transform="matrix(1.00, 0.00, -0.00, -1.00, 492.8, 599.0)">a</text><text xml:space="preserve" font-family="Helvetica-Light" font-size="50.0" fill="#000000" transform="matrix(1.00, 0.00, -0.00, -1.00, 520.6, 599.0)">p</text><text xml:space="preserve" font-family="Helvetica-Light" font-size="50.0" fill="#000000" transform="matrix(1.00, 0.00, -0.00, -1.00, 551.2, 599.0)">p</text><path d="M 294.5 357.1 L 648.2 357.1 C 649.6 357.1 656.4 357.1 663.1 356.3 C 682.0 353.5 696.9 338.6 699.7 319.6 C 700.6 312.9 700.6 306.1 700.6 304.7 C 700.6 303.4 700.6 296.6 699.7 289.9 C 696.9 270.9 682.0 256.0 663.1 253.2 C 656.4 252.4 649.6 252.4 648.2 252.4 L 294.5 252.4 C 293.1 252.4 286.3 252.4 279.6 253.2 C 260.7 256.0 245.8 270.9 243.0 289.9 C 242.1 296.6 242.1 303.4 242.1 304.7 C 242.1 306.1 242.1 312.9 243.0 319.6 C 245.8 338.6 260.7 353.5 279.6 356.3 C 286.3 357.1 293.1 357.1 294.5 357.1 Z M 294.5 357.1 " fill="#FEFFFE"></path><path d="M 1187.0 357.1 L 1540.7 357.1 C 1542.0 357.1 1548.8 357.1 1555.6 356.3 C 1574.5 353.5 1589.4 338.6 1592.2 319.6 C 1593.0 312.9 1593.0 306.1 1593.0 304.7 C 1593.0 303.4 1593.0 296.6 1592.2 289.9 C 1589.4 270.9 1574.5 256.0 1555.6 253.2 C 1548.8 252.4 1542.0 252.4 1540.7 252.4 L 1187.0 252.4 C 1185.6 252.4 1178.8 252.4 1172.1 253.2 C 1153.1 256.0 1138.2 270.9 1135.4 289.9 C 1134.6 296.6 1134.6 303.4 1134.6 304.7 C 1134.6 306.1 1134.6 312.9 1135.4 319.6 C 1138.2 338.6 1153.1 353.5 1172.1 356.3 C 1178.8 357.1 1185.6 357.1 1187.0 357.1 Z M 1187.0 357.1 " fill="#FEFFFE"></path><text xml:space="preserve" font-family="Helvetica-Light" font-size="50.0" fill="#000000" transform="matrix(1.00, 0.00, -0.00, -1.00, 1324.0, 286.0)">i</text><text xml:space="preserve" font-family="Helvetica-Light" font-size="50.0" fill="#000000" transform="matrix(1.00, 0.00, -0.00, -1.00, 1335.1, 286.0)">O</text><text xml:space="preserve" font-family="Helvetica-Light" font-size="50.0" fill="#000000" transform="matrix(1.00, 0.00, -0.00, -1.00, 1374.0, 286.0)">S</text><text xml:space="preserve" font-family="Helvetica-Light" font-size="50.0" fill="#000000" transform="matrix(1.00, 0.00, -0.00, -1.00, 370.0, 286.0)">w</text><text xml:space="preserve" font-family="Helvetica-Light" font-size="50.0" fill="#000000" transform="matrix(1.00, 0.00, -0.00, -1.00, 406.1, 286.0)">a</text><text xml:space="preserve" font-family="Helvetica-Light" font-size="50.0" fill="#000000" transform="matrix(1.00, 0.00, -0.00, -1.00, 433.9, 286.0)">t</text><text xml:space="preserve" font-family="Helvetica-Light" font-size="50.0" fill="#000000" transform="matrix(1.00, 0.00, -0.00, -1.00, 447.8, 286.0)">c</text><text xml:space="preserve" font-family="Helvetica-Light" font-size="50.0" fill="#000000" transform="matrix(1.00, 0.00, -0.00, -1.00, 475.6, 286.0)">h</text><text xml:space="preserve" font-family="Helvetica-Light" font-size="50.0" fill="#000000" transform="matrix(1.00, 0.00, -0.00, -1.00, 503.4, 286.0)">O</text><text xml:space="preserve" font-family="Helvetica-Light" font-size="50.0" fill="#000000" transform="matrix(1.00, 0.00, -0.00, -1.00, 542.3, 286.0)">S</text><path d="M 21.0 0.0 L 24.0 0.0 L 356.0 0.0 L 359.0 0.0 " fill="none" stroke="#FEFFFE" stroke-width="6.00" stroke-dasharray="6.0, 6.0" transform="matrix(1.00, 0.00, 0.00, -1.00, 728.0, 304.7)"></path><path d="M 1084.1 292.7 L 1108.1 304.7 L 1084.1 316.7 Z M 1084.1 292.7 " fill="#FEFFFE"></path><path d="M 752.0 316.7 L 728.0 304.7 L 752.0 292.7 Z M 752.0 316.7 " fill="#FEFFFE"></path><path d="M 347.3 550.3 L 585.6 550.3 L 585.6 419.0 L 347.3 419.0 Z M 347.3 550.3 " fill="#D35854"></path><g><clipPath id="clip-74"><path d="M 340.4 412.2 L 811.8 412.2 L 811.8 557.2 L 340.4 557.2 Z M 340.4 412.2 "></path></clipPath><g clip-path="url(#clip-74)"><text xml:space="preserve" font-family="Helvetica-Light" font-size="50.0" fill="#000000" transform="matrix(1.00, 0.00, -0.00, -1.00, 367.0, 496.0)">W</text><text xml:space="preserve" font-family="Helvetica-Light" font-size="50.0" fill="#000000" transform="matrix(1.00, 0.00, -0.00, -1.00, 409.6, 496.0)">a</text><text xml:space="preserve" font-family="Helvetica-Light" font-size="50.0" fill="#000000" transform="matrix(1.00, 0.00, -0.00, -1.00, 437.4, 496.0)">t</text><text xml:space="preserve" font-family="Helvetica-Light" font-size="50.0" fill="#000000" transform="matrix(1.00, 0.00, -0.00, -1.00, 451.3, 496.0)">c</text><text xml:space="preserve" font-family="Helvetica-Light" font-size="50.0" fill="#000000" transform="matrix(1.00, 0.00, -0.00, -1.00, 479.1, 496.0)">h</text><text xml:space="preserve" font-family="Helvetica-Light" font-size="50.0" fill="#000000" transform="matrix(1.00, 0.00, -0.00, -1.00, 506.9, 496.0)">K</text><text xml:space="preserve" font-family="Helvetica-Light" font-size="50.0" fill="#000000" transform="matrix(1.00, 0.00, -0.00, -1.00, 540.2, 496.0)">i</text><text xml:space="preserve" font-family="Helvetica-Light" font-size="50.0" fill="#000000" transform="matrix(1.00, 0.00, -0.00, -1.00, 551.4, 496.0)">t</text><text xml:space="preserve" font-family="Helvetica-Light" font-size="50.0" fill="#000000" transform="matrix(1.00, 0.00, -0.00, -1.00, 565.2, 496.0)"> </text><text xml:space="preserve" font-family="Helvetica-Light" font-size="50.0" fill="#000000" transform="matrix(1.00, 0.00, -0.00, -1.00, 579.1, 496.0)"> </text><text xml:space="preserve" font-family="Helvetica-Light" font-size="50.0" fill="#000000" transform="matrix(1.00, 0.00, -0.00, -1.00, 358.0, 436.0)">E</text><text xml:space="preserve" font-family="Helvetica-Light" font-size="50.0" fill="#000000" transform="matrix(1.00, 0.00, -0.00, -1.00, 388.6, 436.0)">x</text><text xml:space="preserve" font-family="Helvetica-Light" font-size="50.0" fill="#000000" transform="matrix(1.00, 0.00, -0.00, -1.00, 413.6, 436.0)">t</text><text xml:space="preserve" font-family="Helvetica-Light" font-size="50.0" fill="#000000" transform="matrix(1.00, 0.00, -0.00, -1.00, 427.4, 436.0)">e</text><text xml:space="preserve" font-family="Helvetica-Light" font-size="50.0" fill="#000000" transform="matrix(1.00, 0.00, -0.00, -1.00, 455.2, 436.0)">n</text><text xml:space="preserve" font-family="Helvetica-Light" font-size="50.0" fill="#000000" transform="matrix(1.00, 0.00, -0.00, -1.00, 483.1, 436.0)">s</text><text xml:space="preserve" font-family="Helvetica-Light" font-size="50.0" fill="#000000" transform="matrix(1.00, 0.00, -0.00, -1.00, 508.1, 436.0)">i</text><text xml:space="preserve" font-family="Helvetica-Light" font-size="50.0" fill="#000000" transform="matrix(1.00, 0.00, -0.00, -1.00, 519.1, 436.0)">o</text><text xml:space="preserve" font-family="Helvetica-Light" font-size="50.0" fill="#000000" transform="matrix(1.00, 0.00, -0.00, -1.00, 547.0, 436.0)">n</text></g></g><g><clipPath id="clip-75"><path d="M 727.0 496.6 L 1109.1 496.6 L 1109.1 522.6 L 727.0 522.6 Z M 727.0 496.6 "></path></clipPath><g clip-path="url(#clip-75)"><path d="M 21.0 0.0 L 24.0 0.0 L 356.0 0.0 L 359.0 0.0 " fill="none" stroke="#FEFFFE" stroke-width="6.00" stroke-dasharray="6.0, 6.0" transform="matrix(1.00, 0.00, 0.00, -1.00, 728.0, 509.6)"></path><path d="M 1084.1 497.6 L 1108.1 509.6 L 1084.1 521.6 Z M 1084.1 497.6 " fill="#FEFFFE"></path><path d="M 752.0 521.6 L 728.0 509.6 L 752.0 497.6 Z M 752.0 521.6 " fill="#FEFFFE"></path></g></g><g><clipPath id="clip-76"><path d="M 767.5 518.9 L 1215.7 518.9 L 1215.7 663.9 L 767.5 663.9 Z M 767.5 518.9 "></path></clipPath><g clip-path="url(#clip-76)"><text xml:space="preserve" font-family="Helvetica-Light" font-size="50.0" fill="#FEFFFF" transform="matrix(1.00, 0.00, -0.00, -1.00, 848.0, 603.0)">W</text><text xml:space="preserve" font-family="Helvetica-Light" font-size="50.0" fill="#FEFFFF" transform="matrix(1.00, 0.00, -0.00, -1.00, 890.6, 603.0)">a</text><text xml:space="preserve" font-family="Helvetica-Light" font-size="50.0" fill="#FEFFFF" transform="matrix(1.00, 0.00, -0.00, -1.00, 918.4, 603.0)">t</text><text xml:space="preserve" font-family="Helvetica-Light" font-size="50.0" fill="#FEFFFF" transform="matrix(1.00, 0.00, -0.00, -1.00, 932.3, 603.0)">c</text><text xml:space="preserve" font-family="Helvetica-Light" font-size="50.0" fill="#FEFFFF" transform="matrix(1.00, 0.00, -0.00, -1.00, 960.1, 603.0)">h</text><text xml:space="preserve" font-family="Helvetica-Light" font-size="50.0" fill="#FEFFFF" transform="matrix(1.00, 0.00, -0.00, -1.00, 987.9, 603.0)"> </text><text xml:space="preserve" font-family="Helvetica-Light" font-size="50.0" fill="#FEFFFF" transform="matrix(1.00, 0.00, -0.00, -1.00, 781.0, 543.0)">C</text><text xml:space="preserve" font-family="Helvetica-Light" font-size="50.0" fill="#FEFFFF" transform="matrix(1.00, 0.00, -0.00, -1.00, 817.1, 543.0)">o</text><text xml:space="preserve" font-family="Helvetica-Light" font-size="50.0" fill="#FEFFFF" transform="matrix(1.00, 0.00, -0.00, -1.00, 844.9, 543.0)">n</text><text xml:space="preserve" font-family="Helvetica-Light" font-size="50.0" fill="#FEFFFF" transform="matrix(1.00, 0.00, -0.00, -1.00, 872.7, 543.0)">n</text><text xml:space="preserve" font-family="Helvetica-Light" font-size="50.0" fill="#FEFFFF" transform="matrix(1.00, 0.00, -0.00, -1.00, 900.5, 543.0)">e</text><text xml:space="preserve" font-family="Helvetica-Light" font-size="50.0" fill="#FEFFFF" transform="matrix(1.00, 0.00, -0.00, -1.00, 928.3, 543.0)">c</text><text xml:space="preserve" font-family="Helvetica-Light" font-size="50.0" fill="#FEFFFF" transform="matrix(1.00, 0.00, -0.00, -1.00, 956.1, 543.0)">t</text><text xml:space="preserve" font-family="Helvetica-Light" font-size="50.0" fill="#FEFFFF" transform="matrix(1.00, 0.00, -0.00, -1.00, 970.0, 543.0)">i</text><text xml:space="preserve" font-family="Helvetica-Light" font-size="50.0" fill="#FEFFFF" transform="matrix(1.00, 0.00, -0.00, -1.00, 981.1, 543.0)">v</text><text xml:space="preserve" font-family="Helvetica-Light" font-size="50.0" fill="#FEFFFF" transform="matrix(1.00, 0.00, -0.00, -1.00, 1006.1, 543.0)">i</text><text xml:space="preserve" font-family="Helvetica-Light" font-size="50.0" fill="#FEFFFF" transform="matrix(1.00, 0.00, -0.00, -1.00, 1017.2, 543.0)">t</text><text xml:space="preserve" font-family="Helvetica-Light" font-size="50.0" fill="#FEFFFF" transform="matrix(1.00, 0.00, -0.00, -1.00, 1031.1, 543.0)">y</text></g></g></g></svg>