<?xml version="1.0" encoding="UTF-8" standalone="no"?><svg xmlns="http://www.w3.org/2000/svg" xmlns:xlink="http://www.w3.org/1999/xlink" clip-rule="evenodd" stroke-miterlimit="4.00" viewBox="0 0 1143 76"><desc>SVG generated by Keynote</desc><defs></defs><g transform="matrix(1.00, 0.00, -0.00, -1.00, 0.0, 76.0)"><text xml:space="preserve" font-family="Montserrat-Regular" font-size="96.3" fill="#FEFFFF" transform="matrix(1.00, 0.00, -0.00, -1.00, 1.0, 3.0)">W</text><text xml:space="preserve" font-family="Montserrat-Regular" font-size="96.3" fill="#FEFFFF" transform="matrix(1.00, 0.00, -0.00, -1.00, 98.4, 3.0)">a</text><text xml:space="preserve" font-family="Montserrat-Regular" font-size="96.3" fill="#FEFFFF" transform="matrix(1.00, 0.00, -0.00, -1.00, 154.3, 3.0)">t</text><text xml:space="preserve" font-family="Montserrat-Regular" font-size="96.3" fill="#FEFFFF" transform="matrix(1.00, 0.00, -0.00, -1.00, 194.6, 3.0)">c</text><text xml:space="preserve" font-family="Montserrat-Regular" font-size="96.3" fill="#FEFFFF" transform="matrix(1.00, 0.00, -0.00, -1.00, 250.1, 3.0)">h</text><text xml:space="preserve" font-family="Montserrat-Regular" font-size="96.3" fill="#FEFFFF" transform="matrix(1.00, 0.00, -0.00, -1.00, 312.3, 3.0)">O</text><text xml:space="preserve" font-family="Montserrat-Regular" font-size="96.3" fill="#FEFFFF" transform="matrix(1.00, 0.00, -0.00, -1.00, 393.2, 3.0)">S</text><text xml:space="preserve" font-family="Montserrat-Regular" font-size="96.3" fill="#FEFFFF" transform="matrix(1.00, 0.00, -0.00, -1.00, 453.9, 3.0)">1</text><text xml:space="preserve" font-family="Montserrat-Regular" font-size="96.3" fill="#FEFFFF" transform="matrix(1.00, 0.00, -0.00, -1.00, 490.6, 3.0)"> </text><text xml:space="preserve" font-family="Montserrat-Regular" font-size="96.3" fill="#FEFFFF" transform="matrix(1.00, 0.00, -0.00, -1.00, 517.0, 3.0)">v</text><text xml:space="preserve" font-family="Montserrat-Regular" font-size="96.3" fill="#FEFFFF" transform="matrix(1.00, 0.00, -0.00, -1.00, 571.4, 3.0)">s</text><text xml:space="preserve" font-family="Montserrat-Regular" font-size="96.3" fill="#FEFFFF" transform="matrix(1.00, 0.00, -0.00, -1.00, 620.1, 3.0)"> </text><text xml:space="preserve" font-family="Montserrat-Regular" font-size="96.3" fill="#FEFFFF" transform="matrix(1.00, 0.00, -0.00, -1.00, 646.5, 3.0)">w</text><text xml:space="preserve" font-family="Montserrat-Regular" font-size="96.3" fill="#FEFFFF" transform="matrix(1.00, 0.00, -0.00, -1.00, 733.9, 3.0)">a</text><text xml:space="preserve" font-family="Montserrat-Regular" font-size="96.3" fill="#FEFFFF" transform="matrix(1.00, 0.00, -0.00, -1.00, 789.9, 3.0)">t</text><text xml:space="preserve" font-family="Montserrat-Regular" font-size="96.3" fill="#FEFFFF" transform="matrix(1.00, 0.00, -0.00, -1.00, 830.1, 3.0)">c</text><text xml:space="preserve" font-family="Montserrat-Regular" font-size="96.3" fill="#FEFFFF" transform="matrix(1.00, 0.00, -0.00, -1.00, 885.6, 3.0)">h</text><text xml:space="preserve" font-family="Montserrat-Regular" font-size="96.3" fill="#FEFFFF" transform="matrix(1.00, 0.00, -0.00, -1.00, 947.8, 3.0)">O</text><text xml:space="preserve" font-family="Montserrat-Regular" font-size="96.3" fill="#FEFFFF" transform="matrix(1.00, 0.00, -0.00, -1.00, 1028.7, 3.0)">S</text><text xml:space="preserve" font-family="Montserrat-Regular" font-size="96.3" fill="#FEFFFF" transform="matrix(1.00, 0.00, -0.00, -1.00, 1089.4, 3.0)">2</text></g></svg>