<?xml version="1.0" encoding="UTF-8" standalone="no"?><svg xmlns="http://www.w3.org/2000/svg" xmlns:xlink="http://www.w3.org/1999/xlink" clip-rule="evenodd" stroke-miterlimit="4.00" viewBox="0 0 461 301"><desc>SVG generated by Keynote</desc><defs></defs><g transform="matrix(1.00, 0.00, -0.00, -1.00, 0.0, 301.0)"><path d="M 69.5 299.8 L 391.1 299.8 C 410.7 299.8 420.6 299.8 431.2 296.5 C 442.8 292.2 451.9 283.1 456.2 271.5 C 459.5 261.0 459.5 251.0 459.5 231.1 L 459.5 69.8 C 459.5 50.1 459.5 40.2 456.2 29.6 C 451.9 18.0 442.8 8.9 431.2 4.7 C 420.6 1.3 410.7 1.3 390.8 1.3 L 69.5 1.3 C 49.9 1.3 39.9 1.3 29.4 4.7 C 17.8 8.9 8.6 18.0 4.4 29.6 C 1.1 40.2 1.1 50.1 1.1 70.1 L 1.1 231.4 C 1.1 251.0 1.1 261.0 4.4 271.5 C 8.6 283.1 17.8 292.2 29.4 296.5 C 39.9 299.8 49.9 299.8 69.8 299.8 Z M 69.5 299.8 " fill="#FEFFFE"></path></g></svg>