<?xml version="1.0" encoding="UTF-8" standalone="no"?><svg xmlns="http://www.w3.org/2000/svg" xmlns:xlink="http://www.w3.org/1999/xlink" clip-rule="evenodd" stroke-miterlimit="4.00" viewBox="0 0 461 108"><desc>SVG generated by Keynote</desc><defs></defs><g transform="matrix(1.00, 0.00, -0.00, -1.00, 0.0, 108.0)"><path d="M 53.5 106.1 L 407.2 106.1 C 408.6 106.1 415.4 106.1 422.1 105.3 C 441.0 102.5 455.9 87.6 458.7 68.6 C 459.6 61.9 459.6 55.1 459.6 53.7 C 459.6 52.4 459.6 45.6 458.7 38.9 C 455.9 19.9 441.0 5.0 422.1 2.2 C 415.4 1.4 408.6 1.4 407.2 1.4 L 53.5 1.4 C 52.1 1.4 45.3 1.4 38.6 2.2 C 19.7 5.0 4.8 19.9 2.0 38.9 C 1.1 45.6 1.1 52.4 1.1 53.7 C 1.1 55.1 1.1 61.9 2.0 68.6 C 4.8 87.6 19.7 102.5 38.6 105.3 C 45.3 106.1 52.1 106.1 53.5 106.1 Z M 53.5 106.1 " fill="#FEFFFE"></path></g></svg>