<?xml version="1.0" encoding="UTF-8" standalone="no"?><svg xmlns="http://www.w3.org/2000/svg" xmlns:xlink="http://www.w3.org/1999/xlink" clip-rule="evenodd" stroke-miterlimit="4.00" viewBox="0 0 1920 1080"><desc>SVG generated by Keynote</desc><defs><linearGradient id="gradSh1.6" x1="0.0" y1="0.0" x2="100.0" y2="0.0" gradientUnits="userSpaceOnUse" gradientTransform="matrix(0.00, 10.82, 19.22, 0.00, 960.0, -1.0)"><stop offset="0.00000" stop-color="#140223"></stop><stop offset="0.01173" stop-color="#150223"></stop><stop offset="0.14883" stop-color="#190429"></stop><stop offset="0.14956" stop-color="#1A0429"></stop><stop offset="0.60704" stop-color="#2A083C"></stop><stop offset="0.61877" stop-color="#2B083C"></stop><stop offset="0.70161" stop-color="#2E0840"></stop><stop offset="0.72141" stop-color="#2E0940"></stop><stop offset="1.00000" stop-color="#380B4C"></stop></linearGradient><pattern id="BAA916C4-E454-4D82-96A8-8805FAACDAFC" patternUnits="userSpaceOnUse" width="90" height="90" viewBox="0 0 90 90" patternTransform="matrix(1.422222, 0.000000, 0.000000, -1.422222, -0.601544, 884.443000)"><image xlink:href="../../B4605DC9-A332-4945-BE7D-F5F6FFF7EF2B/assets/6E2F998697819C14EA61B8463CB9E765.jpeg" width="90.00" height="90.00"></image></pattern></defs><g transform="matrix(1.00, 0.00, -0.00, -1.00, 0.0, 1080.0)"><g><clipPath id="clip-41"><path d="M 0.0 1080.0 L 1920.0 1080.0 L 1920.0 0.0 L 0.0 0.0 Z M 0.0 1080.0 "></path></clipPath><g clip-path="url(#clip-41)"><path d="M 0.0 1080.0 L 1920.0 1080.0 L 1920.0 0.0 L 0.0 0.0 Z M 0.0 1080.0 " fill="url(#gradSh1.6)"></path></g></g><g><clipPath id="clip-42"><path d="M -0.4 62.9 L 1920.4 62.9 L 1920.4 -3.9 L -0.4 -3.9 Z M -0.4 62.9 "></path></clipPath><g clip-path="url(#clip-42)"><image xlink:href="../../39451CEE-E280-41CA-872D-216C9FC86FAF/assets/5EE0F9538EBE349EFDB089AAD1362FE3.jpeg" width="958.00" height="768.00" transform="matrix(2.00, 0.00, -0.00, -2.01, -0.4, 799.8)"></image></g></g><image xlink:href="../../39451CEE-E280-41CA-872D-216C9FC86FAF/assets/C7D6B0CF7BED1D23F11F54838624F720.png" width="400.00" height="49.00" transform="matrix(1.18, 0.00, -0.00, -1.16, 1452.0, 58.0)"></image><text xml:space="preserve" font-family="OpenSans" font-size="22.0" fill="#FEFFFF" transform="matrix(1.00, 0.00, -0.00, -1.00, 21.0, 21.0)">#</text><text xml:space="preserve" font-family="OpenSans" font-size="22.0" fill="#FEFFFF" transform="matrix(1.00, 0.00, -0.00, -1.00, 35.2, 21.0)">D</text><text xml:space="preserve" font-family="OpenSans" font-size="22.0" fill="#FEFFFF" transform="matrix(1.00, 0.00, -0.00, -1.00, 51.2, 21.0)">e</text><text xml:space="preserve" font-family="OpenSans" font-size="22.0" fill="#FEFFFF" transform="matrix(1.00, 0.00, -0.00, -1.00, 63.2, 21.0)">v</text><text xml:space="preserve" font-family="OpenSans" font-size="22.0" fill="#FEFFFF" transform="matrix(1.00, 0.00, -0.00, -1.00, 74.2, 21.0)">o</text><text xml:space="preserve" font-family="OpenSans" font-size="22.0" fill="#FEFFFF" transform="matrix(1.00, 0.00, -0.00, -1.00, 87.0, 21.0)">x</text><text xml:space="preserve" font-family="OpenSans" font-size="22.0" fill="#FEFFFF" transform="matrix(1.00, 0.00, -0.00, -1.00, 98.5, 21.0)">x</text><text xml:space="preserve" font-family="OpenSans" font-size="22.0" fill="#FEFFFF" transform="matrix(1.00, 0.00, -0.00, -1.00, 110.1, 21.0)">F</text><text xml:space="preserve" font-family="OpenSans" font-size="22.0" fill="#FEFFFF" transform="matrix(1.00, 0.00, -0.00, -1.00, 121.4, 21.0)">R</text><g><clipPath id="clip-43"><path d="M -0.6 877.4 L 1956.5 877.4 L 1956.5 884.4 L -0.6 884.4 Z M -0.6 877.4 "></path></clipPath><g clip-path="url(#clip-43)"><path d="M 0.0 877.4 L 1920.0 877.4 L 1920.0 884.4 L 0.0 884.4 Z M 0.0 877.4 " fill="url(#BAA916C4-E454-4D82-96A8-8805FAACDAFC)"></path><path d="M -0.6 884.4 L 1956.5 884.4 L 1956.5 877.4 L -0.6 877.4 Z M -0.6 884.4 " fill="#740D29"></path></g></g><text xml:space="preserve" font-family="Montserrat-Regular" font-size="96.0" fill="#FEFFFF" transform="matrix(1.00, 0.00, -0.00, -1.00, 386.0, 930.0)">A</text><text xml:space="preserve" font-family="Montserrat-Regular" font-size="96.0" fill="#FEFFFF" transform="matrix(1.00, 0.00, -0.00, -1.00, 457.2, 930.0)">r</text><text xml:space="preserve" font-family="Montserrat-Regular" font-size="96.0" fill="#FEFFFF" transform="matrix(1.00, 0.00, -0.00, -1.00, 495.3, 930.0)">c</text><text xml:space="preserve" font-family="Montserrat-Regular" font-size="96.0" fill="#FEFFFF" transform="matrix(1.00, 0.00, -0.00, -1.00, 550.6, 930.0)">h</text><text xml:space="preserve" font-family="Montserrat-Regular" font-size="96.0" fill="#FEFFFF" transform="matrix(1.00, 0.00, -0.00, -1.00, 612.7, 930.0)">i</text><text xml:space="preserve" font-family="Montserrat-Regular" font-size="96.0" fill="#FEFFFF" transform="matrix(1.00, 0.00, -0.00, -1.00, 639.0, 930.0)">t</text><text xml:space="preserve" font-family="Montserrat-Regular" font-size="96.0" fill="#FEFFFF" transform="matrix(1.00, 0.00, -0.00, -1.00, 679.1, 930.0)">e</text><text xml:space="preserve" font-family="Montserrat-Regular" font-size="96.0" fill="#FEFFFF" transform="matrix(1.00, 0.00, -0.00, -1.00, 738.4, 930.0)">c</text><text xml:space="preserve" font-family="Montserrat-Regular" font-size="96.0" fill="#FEFFFF" transform="matrix(1.00, 0.00, -0.00, -1.00, 793.7, 930.0)">t</text><text xml:space="preserve" font-family="Montserrat-Regular" font-size="96.0" fill="#FEFFFF" transform="matrix(1.00, 0.00, -0.00, -1.00, 833.8, 930.0)">u</text><text xml:space="preserve" font-family="Montserrat-Regular" font-size="96.0" fill="#FEFFFF" transform="matrix(1.00, 0.00, -0.00, -1.00, 895.9, 930.0)">r</text><text xml:space="preserve" font-family="Montserrat-Regular" font-size="96.0" fill="#FEFFFF" transform="matrix(1.00, 0.00, -0.00, -1.00, 934.0, 930.0)">e</text><text xml:space="preserve" font-family="Montserrat-Regular" font-size="96.0" fill="#FEFFFF" transform="matrix(1.00, 0.00, -0.00, -1.00, 993.3, 930.0)"> </text><text xml:space="preserve" font-family="Montserrat-Regular" font-size="107.5" fill="#FEFFFF" transform="matrix(1.00, 0.00, -0.00, -1.00, 1019.6, 930.0)">W</text><text xml:space="preserve" font-family="Montserrat-Regular" font-size="107.5" fill="#FEFFFF" transform="matrix(1.00, 0.00, -0.00, -1.00, 1128.3, 930.0)">a</text><text xml:space="preserve" font-family="Montserrat-Regular" font-size="107.5" fill="#FEFFFF" transform="matrix(1.00, 0.00, -0.00, -1.00, 1190.8, 930.0)">t</text><text xml:space="preserve" font-family="Montserrat-Regular" font-size="107.5" fill="#FEFFFF" transform="matrix(1.00, 0.00, -0.00, -1.00, 1235.7, 930.0)">c</text><text xml:space="preserve" font-family="Montserrat-Regular" font-size="107.5" fill="#FEFFFF" transform="matrix(1.00, 0.00, -0.00, -1.00, 1297.6, 930.0)">h</text><text xml:space="preserve" font-family="Montserrat-Regular" font-size="107.5" fill="#FEFFFF" transform="matrix(1.00, 0.00, -0.00, -1.00, 1367.1, 930.0)">O</text><text xml:space="preserve" font-family="Montserrat-Regular" font-size="107.5" fill="#FEFFFF" transform="matrix(1.00, 0.00, -0.00, -1.00, 1457.4, 930.0)">S</text><text xml:space="preserve" font-family="Montserrat-Regular" font-size="22.0" fill="#FEFFFF" transform="matrix(1.00, 0.00, -0.00, -1.00, 952.0, 28.0)">6</text><image xlink:href="1A14175F981CF41A98BAED698DC84267.png" width="598.00" height="541.00" transform="matrix(1.47, 0.00, -0.00, -1.47, 521.0, 868.0)"></image></g></svg>