<?xml version="1.0" encoding="UTF-8" standalone="no"?><svg xmlns="http://www.w3.org/2000/svg" xmlns:xlink="http://www.w3.org/1999/xlink" clip-rule="evenodd" stroke-miterlimit="4.00" viewBox="0 0 843 161"><desc>SVG generated by Keynote</desc><defs></defs><g transform="matrix(1.00, 0.00, -0.00, -1.00, 0.0, 161.0)"><g><clipPath id="clip-49"><path d="M 0.5 0.0 L 364.7 0.0 L 364.7 160.8 L 0.5 160.8 Z M 0.5 0.0 "></path></clipPath><g clip-path="url(#clip-49)"><path d="M 0.0 0.0 L 353.2 0.0 L 353.2 149.8 L 0.0 149.8 Z M 0.0 0.0 " fill="none" stroke="#5646C1" stroke-width="9.00" transform="matrix(1.00, 0.00, 0.00, -1.00, 6.0, 155.3)"></path></g></g><g><clipPath id="clip-50"><path d="M 365.5 -4.6 L 980.4 -4.6 L 980.4 165.5 L 365.5 165.5 Z M 365.5 -4.6 "></path></clipPath><g clip-path="url(#clip-50)"><text xml:space="preserve" font-family="OpenSans" font-size="50.0" fill="#5646C1" transform="matrix(1.00, 0.00, -0.00, -1.00, 382.0, 95.0)">C</text><text xml:space="preserve" font-family="OpenSans" font-size="50.0" fill="#5646C1" transform="matrix(1.00, 0.00, -0.00, -1.00, 413.5, 95.0)">o</text><text xml:space="preserve" font-family="OpenSans" font-size="50.0" fill="#5646C1" transform="matrix(1.00, 0.00, -0.00, -1.00, 443.7, 95.0)">d</text><text xml:space="preserve" font-family="OpenSans" font-size="50.0" fill="#5646C1" transform="matrix(1.00, 0.00, -0.00, -1.00, 474.4, 95.0)">e</text><text xml:space="preserve" font-family="OpenSans" font-size="50.0" fill="#5646C1" transform="matrix(1.00, 0.00, -0.00, -1.00, 502.4, 95.0)"> </text><text xml:space="preserve" font-family="OpenSans" font-size="50.0" fill="#5646C1" transform="matrix(1.00, 0.00, -0.00, -1.00, 382.0, 27.0)">D</text><text xml:space="preserve" font-family="OpenSans" font-size="50.0" fill="#5646C1" transform="matrix(1.00, 0.00, -0.00, -1.00, 418.5, 27.0)">y</text><text xml:space="preserve" font-family="OpenSans" font-size="50.0" fill="#5646C1" transform="matrix(1.00, 0.00, -0.00, -1.00, 443.6, 27.0)">n</text><text xml:space="preserve" font-family="OpenSans" font-size="50.0" fill="#5646C1" transform="matrix(1.00, 0.00, -0.00, -1.00, 474.3, 27.0)">a</text><text xml:space="preserve" font-family="OpenSans" font-size="50.0" fill="#5646C1" transform="matrix(1.00, 0.00, -0.00, -1.00, 502.1, 27.0)">m</text><text xml:space="preserve" font-family="OpenSans" font-size="50.0" fill="#5646C1" transform="matrix(1.00, 0.00, -0.00, -1.00, 548.7, 27.0)">i</text><text xml:space="preserve" font-family="OpenSans" font-size="50.0" fill="#5646C1" transform="matrix(1.00, 0.00, -0.00, -1.00, 561.3, 27.0)">c</text><text xml:space="preserve" font-family="OpenSans" font-size="50.0" fill="#5646C1" transform="matrix(1.00, 0.00, -0.00, -1.00, 585.1, 27.0)"> </text><text xml:space="preserve" font-family="OpenSans" font-size="50.0" fill="#5646C1" transform="matrix(1.00, 0.00, -0.00, -1.00, 598.1, 27.0)">b</text><text xml:space="preserve" font-family="OpenSans" font-size="50.0" fill="#5646C1" transform="matrix(1.00, 0.00, -0.00, -1.00, 628.7, 27.0)">e</text><text xml:space="preserve" font-family="OpenSans" font-size="50.0" fill="#5646C1" transform="matrix(1.00, 0.00, -0.00, -1.00, 656.8, 27.0)">h</text><text xml:space="preserve" font-family="OpenSans" font-size="50.0" fill="#5646C1" transform="matrix(1.00, 0.00, -0.00, -1.00, 687.4, 27.0)">a</text><text xml:space="preserve" font-family="OpenSans" font-size="50.0" fill="#5646C1" transform="matrix(1.00, 0.00, -0.00, -1.00, 715.3, 27.0)">v</text><text xml:space="preserve" font-family="OpenSans" font-size="50.0" fill="#5646C1" transform="matrix(1.00, 0.00, -0.00, -1.00, 740.3, 27.0)">i</text><text xml:space="preserve" font-family="OpenSans" font-size="50.0" fill="#5646C1" transform="matrix(1.00, 0.00, -0.00, -1.00, 753.0, 27.0)">o</text><text xml:space="preserve" font-family="OpenSans" font-size="50.0" fill="#5646C1" transform="matrix(1.00, 0.00, -0.00, -1.00, 783.2, 27.0)">u</text><text xml:space="preserve" font-family="OpenSans" font-size="50.0" fill="#5646C1" transform="matrix(1.00, 0.00, -0.00, -1.00, 813.8, 27.0)">r</text></g></g></g></svg>