<?xml version="1.0" encoding="UTF-8" standalone="no"?><svg xmlns="http://www.w3.org/2000/svg" xmlns:xlink="http://www.w3.org/1999/xlink" clip-rule="evenodd" stroke-miterlimit="4.00" viewBox="0 0 1920 1080"><desc>SVG generated by Keynote</desc><defs><linearGradient id="gradSh1.8" x1="0.0" y1="0.0" x2="100.0" y2="0.0" gradientUnits="userSpaceOnUse" gradientTransform="matrix(0.00, 10.82, 19.22, 0.00, 960.0, -1.0)"><stop offset="0.00000" stop-color="#140223"></stop><stop offset="0.01173" stop-color="#150223"></stop><stop offset="0.14883" stop-color="#190429"></stop><stop offset="0.14956" stop-color="#1A0429"></stop><stop offset="0.60704" stop-color="#2A083C"></stop><stop offset="0.61877" stop-color="#2B083C"></stop><stop offset="0.70161" stop-color="#2E0840"></stop><stop offset="0.72141" stop-color="#2E0940"></stop><stop offset="1.00000" stop-color="#380B4C"></stop></linearGradient><pattern id="37F6C54D-C707-4DBD-B3D5-79F71F2C9F9C" patternUnits="userSpaceOnUse" width="90" height="90" viewBox="0 0 90 90" patternTransform="matrix(1.422222, 0.000000, 0.000000, -1.422222, -0.601544, 884.443000)"><image xlink:href="../../B4605DC9-A332-4945-BE7D-F5F6FFF7EF2B/assets/6E2F998697819C14EA61B8463CB9E765.jpeg" width="90.00" height="90.00"></image></pattern></defs><g transform="matrix(1.00, 0.00, -0.00, -1.00, 0.0, 1080.0)"><g><clipPath id="clip-51"><path d="M 0.0 1080.0 L 1920.0 1080.0 L 1920.0 0.0 L 0.0 0.0 Z M 0.0 1080.0 "></path></clipPath><g clip-path="url(#clip-51)"><path d="M 0.0 1080.0 L 1920.0 1080.0 L 1920.0 0.0 L 0.0 0.0 Z M 0.0 1080.0 " fill="url(#gradSh1.8)"></path></g></g><g><clipPath id="clip-52"><path d="M -0.4 62.9 L 1920.4 62.9 L 1920.4 -3.9 L -0.4 -3.9 Z M -0.4 62.9 "></path></clipPath><g clip-path="url(#clip-52)"><image xlink:href="../../39451CEE-E280-41CA-872D-216C9FC86FAF/assets/5EE0F9538EBE349EFDB089AAD1362FE3.jpeg" width="958.00" height="768.00" transform="matrix(2.00, 0.00, -0.00, -2.01, -0.4, 799.8)"></image></g></g><image xlink:href="../../39451CEE-E280-41CA-872D-216C9FC86FAF/assets/C7D6B0CF7BED1D23F11F54838624F720.png" width="400.00" height="49.00" transform="matrix(1.18, 0.00, -0.00, -1.16, 1452.0, 58.0)"></image><text xml:space="preserve" font-family="OpenSans" font-size="22.0" fill="#FEFFFF" transform="matrix(1.00, 0.00, -0.00, -1.00, 21.0, 21.0)">#</text><text xml:space="preserve" font-family="OpenSans" font-size="22.0" fill="#FEFFFF" transform="matrix(1.00, 0.00, -0.00, -1.00, 35.2, 21.0)">D</text><text xml:space="preserve" font-family="OpenSans" font-size="22.0" fill="#FEFFFF" transform="matrix(1.00, 0.00, -0.00, -1.00, 51.2, 21.0)">e</text><text xml:space="preserve" font-family="OpenSans" font-size="22.0" fill="#FEFFFF" transform="matrix(1.00, 0.00, -0.00, -1.00, 63.2, 21.0)">v</text><text xml:space="preserve" font-family="OpenSans" font-size="22.0" fill="#FEFFFF" transform="matrix(1.00, 0.00, -0.00, -1.00, 74.2, 21.0)">o</text><text xml:space="preserve" font-family="OpenSans" font-size="22.0" fill="#FEFFFF" transform="matrix(1.00, 0.00, -0.00, -1.00, 87.0, 21.0)">x</text><text xml:space="preserve" font-family="OpenSans" font-size="22.0" fill="#FEFFFF" transform="matrix(1.00, 0.00, -0.00, -1.00, 98.5, 21.0)">x</text><text xml:space="preserve" font-family="OpenSans" font-size="22.0" fill="#FEFFFF" transform="matrix(1.00, 0.00, -0.00, -1.00, 110.1, 21.0)">F</text><text xml:space="preserve" font-family="OpenSans" font-size="22.0" fill="#FEFFFF" transform="matrix(1.00, 0.00, -0.00, -1.00, 121.4, 21.0)">R</text><g><clipPath id="clip-53"><path d="M -0.6 877.4 L 1956.5 877.4 L 1956.5 884.4 L -0.6 884.4 Z M -0.6 877.4 "></path></clipPath><g clip-path="url(#clip-53)"><path d="M 0.0 877.4 L 1920.0 877.4 L 1920.0 884.4 L 0.0 884.4 Z M 0.0 877.4 " fill="url(#37F6C54D-C707-4DBD-B3D5-79F71F2C9F9C)"></path><path d="M -0.6 884.4 L 1956.5 884.4 L 1956.5 877.4 L -0.6 877.4 Z M -0.6 884.4 " fill="#740D29"></path></g></g><text xml:space="preserve" font-family="Montserrat-Regular" font-size="96.0" fill="#FEFFFF" transform="matrix(1.00, 0.00, -0.00, -1.00, 386.0, 930.0)">A</text><text xml:space="preserve" font-family="Montserrat-Regular" font-size="96.0" fill="#FEFFFF" transform="matrix(1.00, 0.00, -0.00, -1.00, 457.2, 930.0)">r</text><text xml:space="preserve" font-family="Montserrat-Regular" font-size="96.0" fill="#FEFFFF" transform="matrix(1.00, 0.00, -0.00, -1.00, 495.3, 930.0)">c</text><text xml:space="preserve" font-family="Montserrat-Regular" font-size="96.0" fill="#FEFFFF" transform="matrix(1.00, 0.00, -0.00, -1.00, 550.6, 930.0)">h</text><text xml:space="preserve" font-family="Montserrat-Regular" font-size="96.0" fill="#FEFFFF" transform="matrix(1.00, 0.00, -0.00, -1.00, 612.7, 930.0)">i</text><text xml:space="preserve" font-family="Montserrat-Regular" font-size="96.0" fill="#FEFFFF" transform="matrix(1.00, 0.00, -0.00, -1.00, 639.0, 930.0)">t</text><text xml:space="preserve" font-family="Montserrat-Regular" font-size="96.0" fill="#FEFFFF" transform="matrix(1.00, 0.00, -0.00, -1.00, 679.1, 930.0)">e</text><text xml:space="preserve" font-family="Montserrat-Regular" font-size="96.0" fill="#FEFFFF" transform="matrix(1.00, 0.00, -0.00, -1.00, 738.4, 930.0)">c</text><text xml:space="preserve" font-family="Montserrat-Regular" font-size="96.0" fill="#FEFFFF" transform="matrix(1.00, 0.00, -0.00, -1.00, 793.7, 930.0)">t</text><text xml:space="preserve" font-family="Montserrat-Regular" font-size="96.0" fill="#FEFFFF" transform="matrix(1.00, 0.00, -0.00, -1.00, 833.8, 930.0)">u</text><text xml:space="preserve" font-family="Montserrat-Regular" font-size="96.0" fill="#FEFFFF" transform="matrix(1.00, 0.00, -0.00, -1.00, 895.9, 930.0)">r</text><text xml:space="preserve" font-family="Montserrat-Regular" font-size="96.0" fill="#FEFFFF" transform="matrix(1.00, 0.00, -0.00, -1.00, 934.0, 930.0)">e</text><text xml:space="preserve" font-family="Montserrat-Regular" font-size="96.0" fill="#FEFFFF" transform="matrix(1.00, 0.00, -0.00, -1.00, 993.3, 930.0)"> </text><text xml:space="preserve" font-family="Montserrat-Regular" font-size="107.5" fill="#FEFFFF" transform="matrix(1.00, 0.00, -0.00, -1.00, 1019.6, 930.0)">W</text><text xml:space="preserve" font-family="Montserrat-Regular" font-size="107.5" fill="#FEFFFF" transform="matrix(1.00, 0.00, -0.00, -1.00, 1128.3, 930.0)">a</text><text xml:space="preserve" font-family="Montserrat-Regular" font-size="107.5" fill="#FEFFFF" transform="matrix(1.00, 0.00, -0.00, -1.00, 1190.8, 930.0)">t</text><text xml:space="preserve" font-family="Montserrat-Regular" font-size="107.5" fill="#FEFFFF" transform="matrix(1.00, 0.00, -0.00, -1.00, 1235.7, 930.0)">c</text><text xml:space="preserve" font-family="Montserrat-Regular" font-size="107.5" fill="#FEFFFF" transform="matrix(1.00, 0.00, -0.00, -1.00, 1297.6, 930.0)">h</text><text xml:space="preserve" font-family="Montserrat-Regular" font-size="107.5" fill="#FEFFFF" transform="matrix(1.00, 0.00, -0.00, -1.00, 1367.1, 930.0)">O</text><text xml:space="preserve" font-family="Montserrat-Regular" font-size="107.5" fill="#FEFFFF" transform="matrix(1.00, 0.00, -0.00, -1.00, 1457.4, 930.0)">S</text><text xml:space="preserve" font-family="Montserrat-Regular" font-size="22.0" fill="#FEFFFF" transform="matrix(1.00, 0.00, -0.00, -1.00, 952.0, 28.0)">6</text><image xlink:href="../../E96C40C8-ACCE-4EB8-B998-DD562CE41E74/assets/1A14175F981CF41A98BAED698DC84267.png" width="598.00" height="541.00" transform="matrix(1.47, 0.00, -0.00, -1.47, 521.0, 868.0)"></image><g><clipPath id="clip-54"><path d="M 905.2 252.7 L 1504.1 252.7 L 1504.1 422.8 L 905.2 422.8 Z M 905.2 252.7 "></path></clipPath><g clip-path="url(#clip-54)"><text xml:space="preserve" font-family="OpenSans" font-size="50.0" fill="#961817" transform="matrix(1.00, 0.00, -0.00, -1.00, 929.0, 352.0)">S</text><text xml:space="preserve" font-family="OpenSans" font-size="50.0" fill="#961817" transform="matrix(1.00, 0.00, -0.00, -1.00, 956.4, 352.0)">t</text><text xml:space="preserve" font-family="OpenSans" font-size="50.0" fill="#961817" transform="matrix(1.00, 0.00, -0.00, -1.00, 974.1, 352.0)">o</text><text xml:space="preserve" font-family="OpenSans" font-size="50.0" fill="#961817" transform="matrix(1.00, 0.00, -0.00, -1.00, 1004.3, 352.0)">r</text><text xml:space="preserve" font-family="OpenSans" font-size="50.0" fill="#961817" transform="matrix(1.00, 0.00, -0.00, -1.00, 1024.7, 352.0)">y</text><text xml:space="preserve" font-family="OpenSans" font-size="50.0" fill="#961817" transform="matrix(1.00, 0.00, -0.00, -1.00, 1049.9, 352.0)">b</text><text xml:space="preserve" font-family="OpenSans" font-size="50.0" fill="#961817" transform="matrix(1.00, 0.00, -0.00, -1.00, 1080.5, 352.0)">o</text><text xml:space="preserve" font-family="OpenSans" font-size="50.0" fill="#961817" transform="matrix(1.00, 0.00, -0.00, -1.00, 1110.7, 352.0)">a</text><text xml:space="preserve" font-family="OpenSans" font-size="50.0" fill="#961817" transform="matrix(1.00, 0.00, -0.00, -1.00, 1138.5, 352.0)">r</text><text xml:space="preserve" font-family="OpenSans" font-size="50.0" fill="#961817" transform="matrix(1.00, 0.00, -0.00, -1.00, 1158.0, 352.0)">d</text><text xml:space="preserve" font-family="OpenSans" font-size="50.0" fill="#961817" transform="matrix(1.00, 0.00, -0.00, -1.00, 1188.6, 352.0)">,</text><text xml:space="preserve" font-family="OpenSans" font-size="50.0" fill="#961817" transform="matrix(1.00, 0.00, -0.00, -1.00, 1200.9, 352.0)"> </text><text xml:space="preserve" font-family="OpenSans" font-size="50.0" fill="#961817" transform="matrix(1.00, 0.00, -0.00, -1.00, 922.0, 284.0)">R</text><text xml:space="preserve" font-family="OpenSans" font-size="50.0" fill="#961817" transform="matrix(1.00, 0.00, -0.00, -1.00, 952.9, 284.0)">e</text><text xml:space="preserve" font-family="OpenSans" font-size="50.0" fill="#961817" transform="matrix(1.00, 0.00, -0.00, -1.00, 981.0, 284.0)">s</text><text xml:space="preserve" font-family="OpenSans" font-size="50.0" fill="#961817" transform="matrix(1.00, 0.00, -0.00, -1.00, 1004.8, 284.0)">o</text><text xml:space="preserve" font-family="OpenSans" font-size="50.0" fill="#961817" transform="matrix(1.00, 0.00, -0.00, -1.00, 1035.0, 284.0)">u</text><text xml:space="preserve" font-family="OpenSans" font-size="50.0" fill="#961817" transform="matrix(1.00, 0.00, -0.00, -1.00, 1065.7, 284.0)">r</text><text xml:space="preserve" font-family="OpenSans" font-size="50.0" fill="#961817" transform="matrix(1.00, 0.00, -0.00, -1.00, 1085.1, 284.0)">c</text><text xml:space="preserve" font-family="OpenSans" font-size="50.0" fill="#961817" transform="matrix(1.00, 0.00, -0.00, -1.00, 1108.9, 284.0)">e</text><text xml:space="preserve" font-family="OpenSans" font-size="50.0" fill="#961817" transform="matrix(1.00, 0.00, -0.00, -1.00, 1137.0, 284.0)">s</text></g></g><g><clipPath id="clip-55"><path d="M 540.3 268.7 L 904.5 268.7 L 904.5 406.8 L 540.3 406.8 Z M 540.3 268.7 "></path></clipPath><g clip-path="url(#clip-55)"><path d="M 0.0 0.0 L 353.2 0.0 L 353.2 127.1 L 0.0 127.1 Z M 0.0 0.0 " fill="none" stroke="#961817" stroke-width="9.00" transform="matrix(1.00, 0.00, 0.00, -1.00, 545.8, 401.3)"></path></g></g><g><clipPath id="clip-56"><path d="M 541.5 119.0 L 905.7 119.0 L 905.7 279.8 L 541.5 279.8 Z M 541.5 119.0 "></path></clipPath><g clip-path="url(#clip-56)"><path d="M 0.0 0.0 L 353.2 0.0 L 353.2 149.8 L 0.0 149.8 Z M 0.0 0.0 " fill="none" stroke="#5646C1" stroke-width="9.00" transform="matrix(1.00, 0.00, 0.00, -1.00, 547.0, 274.3)"></path></g></g><g><clipPath id="clip-57"><path d="M 906.5 114.4 L 1521.4 114.4 L 1521.4 284.5 L 906.5 284.5 Z M 906.5 114.4 "></path></clipPath><g clip-path="url(#clip-57)"><text xml:space="preserve" font-family="OpenSans" font-size="50.0" fill="#5646C1" transform="matrix(1.00, 0.00, -0.00, -1.00, 923.0, 214.0)">C</text><text xml:space="preserve" font-family="OpenSans" font-size="50.0" fill="#5646C1" transform="matrix(1.00, 0.00, -0.00, -1.00, 954.5, 214.0)">o</text><text xml:space="preserve" font-family="OpenSans" font-size="50.0" fill="#5646C1" transform="matrix(1.00, 0.00, -0.00, -1.00, 984.7, 214.0)">d</text><text xml:space="preserve" font-family="OpenSans" font-size="50.0" fill="#5646C1" transform="matrix(1.00, 0.00, -0.00, -1.00, 1015.4, 214.0)">e</text><text xml:space="preserve" font-family="OpenSans" font-size="50.0" fill="#5646C1" transform="matrix(1.00, 0.00, -0.00, -1.00, 1043.4, 214.0)"> </text><text xml:space="preserve" font-family="OpenSans" font-size="50.0" fill="#5646C1" transform="matrix(1.00, 0.00, -0.00, -1.00, 923.0, 146.0)">D</text><text xml:space="preserve" font-family="OpenSans" font-size="50.0" fill="#5646C1" transform="matrix(1.00, 0.00, -0.00, -1.00, 959.5, 146.0)">y</text><text xml:space="preserve" font-family="OpenSans" font-size="50.0" fill="#5646C1" transform="matrix(1.00, 0.00, -0.00, -1.00, 984.6, 146.0)">n</text><text xml:space="preserve" font-family="OpenSans" font-size="50.0" fill="#5646C1" transform="matrix(1.00, 0.00, -0.00, -1.00, 1015.3, 146.0)">a</text><text xml:space="preserve" font-family="OpenSans" font-size="50.0" fill="#5646C1" transform="matrix(1.00, 0.00, -0.00, -1.00, 1043.1, 146.0)">m</text><text xml:space="preserve" font-family="OpenSans" font-size="50.0" fill="#5646C1" transform="matrix(1.00, 0.00, -0.00, -1.00, 1089.7, 146.0)">i</text><text xml:space="preserve" font-family="OpenSans" font-size="50.0" fill="#5646C1" transform="matrix(1.00, 0.00, -0.00, -1.00, 1102.3, 146.0)">c</text><text xml:space="preserve" font-family="OpenSans" font-size="50.0" fill="#5646C1" transform="matrix(1.00, 0.00, -0.00, -1.00, 1126.1, 146.0)"> </text><text xml:space="preserve" font-family="OpenSans" font-size="50.0" fill="#5646C1" transform="matrix(1.00, 0.00, -0.00, -1.00, 1139.1, 146.0)">b</text><text xml:space="preserve" font-family="OpenSans" font-size="50.0" fill="#5646C1" transform="matrix(1.00, 0.00, -0.00, -1.00, 1169.7, 146.0)">e</text><text xml:space="preserve" font-family="OpenSans" font-size="50.0" fill="#5646C1" transform="matrix(1.00, 0.00, -0.00, -1.00, 1197.8, 146.0)">h</text><text xml:space="preserve" font-family="OpenSans" font-size="50.0" fill="#5646C1" transform="matrix(1.00, 0.00, -0.00, -1.00, 1228.4, 146.0)">a</text><text xml:space="preserve" font-family="OpenSans" font-size="50.0" fill="#5646C1" transform="matrix(1.00, 0.00, -0.00, -1.00, 1256.3, 146.0)">v</text><text xml:space="preserve" font-family="OpenSans" font-size="50.0" fill="#5646C1" transform="matrix(1.00, 0.00, -0.00, -1.00, 1281.3, 146.0)">i</text><text xml:space="preserve" font-family="OpenSans" font-size="50.0" fill="#5646C1" transform="matrix(1.00, 0.00, -0.00, -1.00, 1294.0, 146.0)">o</text><text xml:space="preserve" font-family="OpenSans" font-size="50.0" fill="#5646C1" transform="matrix(1.00, 0.00, -0.00, -1.00, 1324.2, 146.0)">u</text><text xml:space="preserve" font-family="OpenSans" font-size="50.0" fill="#5646C1" transform="matrix(1.00, 0.00, -0.00, -1.00, 1354.8, 146.0)">r</text></g></g></g></svg>