<?xml version="1.0" encoding="UTF-8" standalone="no"?><svg xmlns="http://www.w3.org/2000/svg" xmlns:xlink="http://www.w3.org/1999/xlink" clip-rule="evenodd" stroke-miterlimit="4.00" viewBox="0 0 1920 1080"><desc>SVG generated by Keynote</desc><defs><linearGradient id="gradSh1.4" x1="0.0" y1="0.0" x2="100.0" y2="0.0" gradientUnits="userSpaceOnUse" gradientTransform="matrix(0.00, 10.82, 19.22, 0.00, 960.0, -1.0)"><stop offset="0.00000" stop-color="#140223"></stop><stop offset="0.00073" stop-color="#380B4C"></stop><stop offset="1.00000" stop-color="#380B4C"></stop></linearGradient><pattern id="D42CBD70-882F-4E5F-AD2A-BFA9FCC57EEC" patternUnits="userSpaceOnUse" width="90" height="90" viewBox="0 0 90 90" patternTransform="matrix(1.422222, 0.000000, 0.000000, -1.422222, -0.601544, 884.443000)"><image xlink:href="../../B4605DC9-A332-4945-BE7D-F5F6FFF7EF2B/assets/6E2F998697819C14EA61B8463CB9E765.jpeg" width="90.00" height="90.00"></image></pattern></defs><g transform="matrix(1.00, 0.00, -0.00, -1.00, 0.0, 1080.0)"><g><clipPath id="clip-35"><path d="M 0.0 1080.0 L 1920.0 1080.0 L 1920.0 0.0 L 0.0 0.0 Z M 0.0 1080.0 "></path></clipPath><g clip-path="url(#clip-35)"><path d="M 0.0 1080.0 L 1920.0 1080.0 L 1920.0 0.0 L 0.0 0.0 Z M 0.0 1080.0 " fill="url(#gradSh1.4)"></path></g></g><g><clipPath id="clip-36"><path d="M -0.4 62.9 L 1920.4 62.9 L 1920.4 -3.9 L -0.4 -3.9 Z M -0.4 62.9 "></path></clipPath><g clip-path="url(#clip-36)"><image xlink:href="../../39451CEE-E280-41CA-872D-216C9FC86FAF/assets/5EE0F9538EBE349EFDB089AAD1362FE3.jpeg" width="958.00" height="768.00" transform="matrix(2.00, 0.00, -0.00, -2.01, -0.4, 799.8)"></image></g></g><image xlink:href="../../39451CEE-E280-41CA-872D-216C9FC86FAF/assets/C7D6B0CF7BED1D23F11F54838624F720.png" width="400.00" height="49.00" transform="matrix(1.18, 0.00, -0.00, -1.16, 1452.0, 58.0)"></image><text xml:space="preserve" font-family="OpenSans" font-size="22.0" fill="#FEFFFF" transform="matrix(1.00, 0.00, -0.00, -1.00, 21.0, 21.0)">#</text><text xml:space="preserve" font-family="OpenSans" font-size="22.0" fill="#FEFFFF" transform="matrix(1.00, 0.00, -0.00, -1.00, 35.2, 21.0)">D</text><text xml:space="preserve" font-family="OpenSans" font-size="22.0" fill="#FEFFFF" transform="matrix(1.00, 0.00, -0.00, -1.00, 51.2, 21.0)">e</text><text xml:space="preserve" font-family="OpenSans" font-size="22.0" fill="#FEFFFF" transform="matrix(1.00, 0.00, -0.00, -1.00, 63.2, 21.0)">v</text><text xml:space="preserve" font-family="OpenSans" font-size="22.0" fill="#FEFFFF" transform="matrix(1.00, 0.00, -0.00, -1.00, 74.2, 21.0)">o</text><text xml:space="preserve" font-family="OpenSans" font-size="22.0" fill="#FEFFFF" transform="matrix(1.00, 0.00, -0.00, -1.00, 87.0, 21.0)">x</text><text xml:space="preserve" font-family="OpenSans" font-size="22.0" fill="#FEFFFF" transform="matrix(1.00, 0.00, -0.00, -1.00, 98.5, 21.0)">x</text><text xml:space="preserve" font-family="OpenSans" font-size="22.0" fill="#FEFFFF" transform="matrix(1.00, 0.00, -0.00, -1.00, 110.1, 21.0)">F</text><text xml:space="preserve" font-family="OpenSans" font-size="22.0" fill="#FEFFFF" transform="matrix(1.00, 0.00, -0.00, -1.00, 121.4, 21.0)">R</text><g><clipPath id="clip-37"><path d="M -0.6 877.4 L 1956.5 877.4 L 1956.5 884.4 L -0.6 884.4 Z M -0.6 877.4 "></path></clipPath><g clip-path="url(#clip-37)"><path d="M 0.0 877.4 L 1920.0 877.4 L 1920.0 884.4 L 0.0 884.4 Z M 0.0 877.4 " fill="url(#D42CBD70-882F-4E5F-AD2A-BFA9FCC57EEC)"></path><path d="M -0.6 884.4 L 1956.5 884.4 L 1956.5 877.4 L -0.6 877.4 Z M -0.6 884.4 " fill="#740D29"></path></g></g><text xml:space="preserve" font-family="Montserrat-Regular" font-size="22.0" fill="#FEFFFF" transform="matrix(1.00, 0.00, -0.00, -1.00, 953.0, 28.0)">5</text><text xml:space="preserve" font-family="Montserrat-Regular" font-size="112.0" fill="#FEFFFF" transform="matrix(1.00, 0.00, -0.00, -1.00, 625.0, 929.0)">Q</text><text xml:space="preserve" font-family="Montserrat-Regular" font-size="112.0" fill="#FEFFFF" transform="matrix(1.00, 0.00, -0.00, -1.00, 719.1, 929.0)">u</text><text xml:space="preserve" font-family="Montserrat-Regular" font-size="112.0" fill="#FEFFFF" transform="matrix(1.00, 0.00, -0.00, -1.00, 791.4, 929.0)">e</text><text xml:space="preserve" font-family="Montserrat-Regular" font-size="112.0" fill="#FEFFFF" transform="matrix(1.00, 0.00, -0.00, -1.00, 860.6, 929.0)">l</text><text xml:space="preserve" font-family="Montserrat-Regular" font-size="112.0" fill="#FEFFFF" transform="matrix(1.00, 0.00, -0.00, -1.00, 891.3, 929.0)">l</text><text xml:space="preserve" font-family="Montserrat-Regular" font-size="112.0" fill="#FEFFFF" transform="matrix(1.00, 0.00, -0.00, -1.00, 922.0, 929.0)">e</text><text xml:space="preserve" font-family="Montserrat-Regular" font-size="112.0" fill="#FEFFFF" transform="matrix(1.00, 0.00, -0.00, -1.00, 991.2, 929.0)"> </text><text xml:space="preserve" font-family="Montserrat-Regular" font-size="112.0" fill="#FEFFFF" transform="matrix(1.00, 0.00, -0.00, -1.00, 1021.9, 929.0)">a</text><text xml:space="preserve" font-family="Montserrat-Regular" font-size="112.0" fill="#FEFFFF" transform="matrix(1.00, 0.00, -0.00, -1.00, 1087.7, 929.0)">p</text><text xml:space="preserve" font-family="Montserrat-Regular" font-size="112.0" fill="#FEFFFF" transform="matrix(1.00, 0.00, -0.00, -1.00, 1162.9, 929.0)">p</text><text xml:space="preserve" font-family="Montserrat-Regular" font-size="112.0" fill="#FEFFFF" transform="matrix(1.00, 0.00, -0.00, -1.00, 1238.2, 929.0)">?</text><image xlink:href="5C334B0FB23554BA94951578E8D06375.png" width="295.00" height="540.00" transform="matrix(1.33, 0.00, -0.00, -1.33, 121.0, 828.0)"></image><image xlink:href="24AEDACF0A0647D907E2EC166016FA98.png" width="295.00" height="540.00" transform="matrix(1.33, 0.00, -0.00, -1.33, 970.0, 828.0)"></image><image xlink:href="45F926D247094010D10F6ACD3AEF6958.png" width="295.00" height="540.00" transform="matrix(1.33, 0.00, -0.00, -1.33, 1407.0, 828.0)"></image><image xlink:href="E9B7E16C86989FC5E333A33412FF81A6.png" width="295.00" height="540.00" transform="matrix(1.33, 0.00, -0.00, -1.33, 545.0, 828.0)"></image></g></svg>